<?xml version="1.0" encoding="utf-8"?><svg xmlns="http://www.w3.org/2000/svg" xmlns:xlink="http://www.w3.org/1999/xlink"><symbol viewBox="0 0 13 23" id="arrow-left" xmlns="http://www.w3.org/2000/svg"><path fill-rule="evenodd" clip-rule="evenodd" d="M.5 13.052c-.14-.146-.25-.32-.326-.51a1.637 1.637 0 010-1.205c.076-.19.186-.364.326-.51L9.497 1.4c.281-.295.663-.46 1.061-.46.398 0 .78.165 1.062.46.281.295.44.695.44 1.113 0 .417-.159.817-.44 1.112L3.682 11.94l7.938 8.314c.14.146.25.32.325.51a1.64 1.64 0 010 1.204 1.58 1.58 0 01-.325.51 1.5 1.5 0 01-.487.342 1.442 1.442 0 01-1.15 0 1.499 1.499 0 01-.486-.341L.5 13.052z"/></symbol><symbol viewBox="0 0 13 23" id="arrow-right" xmlns="http://www.w3.org/2000/svg"><path fill-rule="evenodd" clip-rule="evenodd" d="M12.5 13.052c.14-.146.25-.32.326-.51a1.636 1.636 0 000-1.205 1.576 1.576 0 00-.326-.51L3.503 1.4A1.467 1.467 0 002.442.94c-.398 0-.78.165-1.062.46-.281.295-.44.695-.44 1.113 0 .417.159.817.44 1.112l7.938 8.315-7.938 8.314c-.14.146-.25.32-.325.51a1.639 1.639 0 000 1.204c.075.191.186.365.325.51.14.147.305.263.487.342a1.441 1.441 0 001.15 0c.181-.08.347-.195.486-.341l8.997-9.427z"/></symbol><symbol viewBox="0 0 12 12" id="close" xmlns="http://www.w3.org/2000/svg"><path d="M10.59 0L12 1.41l-4.5 4.5 4.5 4.5-1.41 1.41-4.505-4.495L6 7.41l-.085-.085L1.41 11.82 0 10.41l4.5-4.5L0 1.41 1.41 0l4.505 4.495L6 4.41l.085.085L10.59 0z"/></symbol><symbol viewBox="0 0 50 50" id="close-modal" xmlns="http://www.w3.org/2000/svg"><path d="M37.304 11.282l1.414 1.414-26.022 26.02-1.414-1.413 26.022-26.021z"/><path d="M12.696 11.282l26.022 26.02-1.414 1.415-26.022-26.02 1.414-1.415z"/></symbol><symbol viewBox="0 0 20 20" id="instagram" xmlns="http://www.w3.org/2000/svg"><path d="M9.997 6.665A3.342 3.342 0 006.662 10a3.342 3.342 0 003.335 3.335A3.342 3.342 0 0013.332 10a3.342 3.342 0 00-3.335-3.335zM20 10c0-1.381.012-2.75-.065-4.128-.078-1.601-.443-3.022-1.614-4.193C17.147.506 15.728.143 14.127.066 12.747-.012 11.378 0 10 0 8.619 0 7.25-.012 5.872.066 4.27.143 2.85.509 1.679 1.679.506 2.853.143 4.271.066 5.872-.012 7.253 0 8.622 0 10c0 1.378-.012 2.75.066 4.127.077 1.602.442 3.022 1.613 4.193 1.173 1.174 2.592 1.536 4.193 1.614 1.38.077 2.75.065 4.128.065 1.38 0 2.749.012 4.127-.065 1.601-.078 3.022-.443 4.193-1.614 1.173-1.173 1.536-2.591 1.614-4.193.08-1.378.065-2.746.065-4.127zM9.997 15.13A5.124 5.124 0 014.867 10c0-2.84 2.29-5.131 5.13-5.131s5.13 2.291 5.13 5.13c0 2.84-2.29 5.132-5.13 5.132zm5.341-9.273A1.197 1.197 0 0114.14 4.66c0-.663.535-1.198 1.198-1.198a1.197 1.197 0 01.848 2.046 1.197 1.197 0 01-.848.35z"/></symbol><symbol viewBox="0 0 118 27" id="logo" xmlns="http://www.w3.org/2000/svg"><path d="M13.544 0C20.504 0 26.25 5.26 27 12.002H15.497v-4.5l-7.524 6 7.524 6v-4.5H27C26.245 21.74 20.502 27 13.543 27 6.075 27 0 20.945 0 13.5 0 6.056 6.075 0 13.544 0zm33.922 20h-3.15l-3.636-4.806-.936 1.116V20h-2.556V7.994h2.556v5.364l4.248-5.364h3.15l-4.77 5.634L47.466 20zm9.841 0h-8.496V7.994h8.496v2.25h-5.94v2.538h5.814v2.25h-5.814v2.718h5.94V20zm10.042.216c-.756 0-1.482-.12-2.178-.36-.684-.24-1.254-.57-1.71-.99l.99-1.602c.336.312.792.588 1.368.828.576.24 1.122.36 1.638.36.48 0 .84-.084 1.08-.252a.783.783 0 00.378-.684c0-.216-.132-.39-.396-.522-.252-.144-.57-.246-.954-.306-.372-.06-.786-.15-1.242-.27a8.869 8.869 0 01-1.242-.432 2.404 2.404 0 01-.954-.792c-.252-.372-.378-.828-.378-1.368 0-.768.318-1.416.954-1.944.636-.528 1.506-.792 2.61-.792 1.344 0 2.514.396 3.51 1.188l-.918 1.566c-.276-.288-.648-.528-1.116-.72a3.718 3.718 0 00-1.458-.288c-.408 0-.738.084-.99.252-.252.156-.378.36-.378.612 0 .192.126.354.378.486.252.12.57.21.954.27.384.06.798.156 1.242.288.444.12.858.27 1.242.45.384.168.702.444.954.828.252.384.378.852.378 1.404 0 .816-.336 1.488-1.008 2.016-.66.516-1.578.774-2.754.774zm8.542 0c-.804 0-1.416-.204-1.836-.612-.42-.408-.63-.996-.63-1.764v-4.536h-1.44v-1.998h1.44V8.93h2.304v2.376h1.764v1.998H75.73v3.924c0 .276.072.504.216.684a.7.7 0 00.576.27c.36 0 .624-.084.792-.252l.486 1.728c-.42.372-1.056.558-1.908.558zm11.5-.216h-2.286v-1.098c-.78.876-1.8 1.314-3.06 1.314-.936 0-1.638-.24-2.106-.72-.468-.48-.702-1.152-.702-2.016v-6.174h2.286v5.274c0 1.068.534 1.602 1.602 1.602.804 0 1.464-.33 1.98-.99v-5.886h2.286V20zm10.73 0h-2.304v-1.116c-.708.888-1.602 1.332-2.682 1.332-1.128 0-2.052-.402-2.772-1.206-.72-.816-1.08-1.932-1.08-3.348 0-1.392.36-2.502 1.08-3.33.72-.828 1.644-1.242 2.772-1.242 1.104 0 1.998.444 2.682 1.332V7.994h2.304V20zm-4.284-1.818c.384 0 .762-.09 1.134-.27.372-.192.654-.432.846-.72v-3.078c-.192-.288-.474-.522-.846-.702a2.448 2.448 0 00-1.134-.288c-.648 0-1.176.234-1.584.702-.408.468-.612 1.08-.612 1.836 0 .744.204 1.35.612 1.818.408.468.936.702 1.584.702zm7.865-7.812a1.36 1.36 0 01-.972-.396 1.36 1.36 0 01-.396-.972c0-.372.132-.69.396-.954.276-.264.6-.396.972-.396.384 0 .708.132.972.396a1.3 1.3 0 01.396.954c0 .372-.132.696-.396.972a1.321 1.321 0 01-.972.396zm1.152 9.63h-2.286v-8.694h2.286V20zm9.827-1.098c-.84.876-1.956 1.314-3.348 1.314s-2.508-.438-3.348-1.314c-.828-.888-1.242-1.974-1.242-3.258s.414-2.364 1.242-3.24c.84-.876 1.956-1.314 3.348-1.314s2.508.438 3.348 1.314c.84.876 1.26 1.956 1.26 3.24 0 1.284-.42 2.37-1.26 3.258zm-4.968-1.44c.396.48.936.72 1.62.72s1.224-.24 1.62-.72c.408-.492.612-1.098.612-1.818 0-.708-.204-1.302-.612-1.782-.396-.492-.936-.738-1.62-.738s-1.224.246-1.62.738c-.396.48-.594 1.074-.594 1.782 0 .72.198 1.326.594 1.818z"/></symbol><symbol viewBox="0 0 26 32" id="play" xmlns="http://www.w3.org/2000/svg"><path d="M0 31.806V.429l26 15.716L0 31.806z"/></symbol><symbol viewBox="0 0 20 20" id="telegram" xmlns="http://www.w3.org/2000/svg"><path d="M10 0C4.475 0 0 4.476 0 10s4.476 10 10 10 10-4.476 10-10S15.524 0 10 0zm4.912 6.851l-1.642 7.734c-.121.548-.447.681-.903.423l-2.5-1.842-1.206 1.161c-.133.133-.246.246-.504.246l.178-2.545 4.633-4.185c.202-.178-.045-.278-.311-.101L6.93 11.347l-2.468-.77c-.536-.17-.548-.537.113-.795l9.641-3.718c.448-.161.84.109.694.786v.001z"/></symbol></svg>