<?xml version="1.0" encoding="utf-8"?><svg xmlns="http://www.w3.org/2000/svg" xmlns:xlink="http://www.w3.org/1999/xlink"><symbol viewBox="0 0 13 23" id="arrow-left" xmlns="http://www.w3.org/2000/svg"><path fill-rule="evenodd" clip-rule="evenodd" d="M.5 13.052c-.14-.146-.25-.32-.326-.51a1.637 1.637 0 010-1.205c.076-.19.186-.364.326-.51L9.497 1.4c.281-.295.663-.46 1.061-.46.398 0 .78.165 1.062.46.281.295.44.695.44 1.113 0 .417-.159.817-.44 1.112L3.682 11.94l7.938 8.314c.14.146.25.32.325.51a1.64 1.64 0 010 1.204 1.58 1.58 0 01-.325.51 1.5 1.5 0 01-.487.342 1.442 1.442 0 01-1.15 0 1.499 1.499 0 01-.486-.341L.5 13.052z"/></symbol><symbol viewBox="0 0 13 23" id="arrow-right" xmlns="http://www.w3.org/2000/svg"><path fill-rule="evenodd" clip-rule="evenodd" d="M12.5 13.052c.14-.146.25-.32.326-.51a1.636 1.636 0 000-1.205 1.576 1.576 0 00-.326-.51L3.503 1.4A1.467 1.467 0 002.442.94c-.398 0-.78.165-1.062.46-.281.295-.44.695-.44 1.113 0 .417.159.817.44 1.112l7.938 8.315-7.938 8.314c-.14.146-.25.32-.325.51a1.639 1.639 0 000 1.204c.075.191.186.365.325.51.14.147.305.263.487.342a1.441 1.441 0 001.15 0c.181-.08.347-.195.486-.341l8.997-9.427z"/></symbol><symbol viewBox="0 0 12 12" id="close" xmlns="http://www.w3.org/2000/svg"><path d="M10.59 0L12 1.41l-4.5 4.5 4.5 4.5-1.41 1.41-4.505-4.495L6 7.41l-.085-.085L1.41 11.82 0 10.41l4.5-4.5L0 1.41 1.41 0l4.505 4.495L6 4.41l.085.085L10.59 0z"/></symbol><symbol viewBox="0 0 50 50" id="close-modal" xmlns="http://www.w3.org/2000/svg"><path d="M37.304 11.282l1.414 1.414-26.022 26.02-1.414-1.413 26.022-26.021z"/><path d="M12.696 11.282l26.022 26.02-1.414 1.415-26.022-26.02 1.414-1.415z"/></symbol><symbol viewBox="0 0 20 20" id="instagram" xmlns="http://www.w3.org/2000/svg"><path d="M9.997 6.665A3.342 3.342 0 006.662 10a3.342 3.342 0 003.335 3.335A3.342 3.342 0 0013.332 10a3.342 3.342 0 00-3.335-3.335zM20 10c0-1.381.012-2.75-.065-4.128-.078-1.601-.443-3.022-1.614-4.193C17.147.506 15.728.143 14.127.066 12.747-.012 11.378 0 10 0 8.619 0 7.25-.012 5.872.066 4.27.143 2.85.509 1.679 1.679.506 2.853.143 4.271.066 5.872-.012 7.253 0 8.622 0 10c0 1.378-.012 2.75.066 4.127.077 1.602.442 3.022 1.613 4.193 1.173 1.174 2.592 1.536 4.193 1.614 1.38.077 2.75.065 4.128.065 1.38 0 2.749.012 4.127-.065 1.601-.078 3.022-.443 4.193-1.614 1.173-1.173 1.536-2.591 1.614-4.193.08-1.378.065-2.746.065-4.127zM9.997 15.13A5.124 5.124 0 014.867 10c0-2.84 2.29-5.131 5.13-5.131s5.13 2.291 5.13 5.13c0 2.84-2.29 5.132-5.13 5.132zm5.341-9.273A1.197 1.197 0 0114.14 4.66c0-.663.535-1.198 1.198-1.198a1.197 1.197 0 01.848 2.046 1.197 1.197 0 01-.848.35z"/></symbol><symbol viewBox="0 0 170 45" id="logo" xmlns="http://www.w3.org/2000/svg"><path d="M21.819 44.042c11.897 0 21.542-9.645 21.542-21.542C43.36 10.602 33.716.958 21.819.958 9.92.958.276 10.602.276 22.5c0 11.897 9.645 21.542 21.543 21.542z"/><path fill-rule="evenodd" clip-rule="evenodd" d="M15.085 14.031h3.705v17h-3.705v-17zm11.897 0h4.684l-5.595 6.623h17.234c0 .307.014.615.028.923.014.308.028.615.028.923 0 .616 0 1.231-.056 1.847H26.533l5.213 6.678h-4.653l-6.955-8.808 6.844-8.186zM140.444 31.322a7.007 7.007 0 01-2.835.603l.037.03c-4.154 0-7.521-3.65-7.521-8.136 0-4.487 3.367-8.137 7.466-8.137a6.838 6.838 0 015.158 2.585v-8.001h3.693v21.247h-3.65v-1.89a7.016 7.016 0 01-2.348 1.699zm.547-11.434a4.715 4.715 0 00-2.6-.814 4.923 4.923 0 00-3.422 1.403 5.028 5.028 0 00-1.342 3.367 4.719 4.719 0 002.937 4.31 4.716 4.716 0 004.427-8.266z"/><path d="M118.509 16.167v8.617h.002v.543l-.002.046v.027h-.001c-.01.486.062 3.238 3.031 3.238 2.357 0 3.256-1.403 3.588-2.579v-9.928h3.693v15.43h-3.693v-2.135a5.21 5.21 0 01-4.487 2.53c-5.729 0-5.808-5.65-5.784-6.556h-.002v-9.233h3.655zm-9.376 15.724c-1.346 0-2.09-.341-2.793-1.024-.703-.684-1.055-1.668-1.055-2.954v-8.4h-2.411v-3.346h2.411V12.19h3.577v3.978h2.954v3.346h-2.954v7.375c0 .462.121.844.362 1.145.241.302.562.452.964.452.603 0 1.045-.14 1.327-.422l.813 2.894c-.703.623-1.768.934-3.195.934zm-21.617-2.806c1.822 1.857 4.292 2.785 7.41 2.785 2.277 0 4.011-.517 5.203-1.55 1.208-1.034 1.813-2.391 1.813-4.073 0-1.016-.254-1.883-.762-2.601-.491-.736-1.113-1.27-1.866-1.603a16.942 16.942 0 00-2.417-.92c-.859-.28-1.664-.49-2.418-.63-.735-.14-1.357-.35-1.865-.63-.49-.299-.736-.658-.736-1.078 0-.543.22-.972.657-1.288.438-.315 1.051-.473 1.84-.473 2.014 0 3.713.64 5.097 1.918l2.076-2.732c-1.77-1.63-4.047-2.444-6.832-2.444-2.015 0-3.626.517-4.835 1.55-1.209 1.016-1.813 2.278-1.813 3.784 0 1.034.245 1.91.736 2.628.508.718 1.13 1.243 1.865 1.576.754.333 1.568.63 2.444.894.876.262 1.682.464 2.417.604.754.14 1.376.368 1.866.683.508.315.762.71.762 1.182 0 .543-.272 1.008-.815 1.393-.525.368-1.27.552-2.233.552-2.207 0-4.064-.788-5.57-2.365l-2.024 2.838zM50.65 14.376h3.694v17.086H50.65V14.376zm10.655 17.086l-6.961-8.9 6.85-8.204h4.66l-6.851 8.204 6.961 8.9h-4.66zm18.982 0H68.56V14.321h11.725v3.305h-7.964v3.478h7.386v3.145h-7.386v3.871h7.965v3.342zm68.227-15.295h3.693v15.388h-3.693V16.167z"/><path fill-rule="evenodd" clip-rule="evenodd" d="M162.096 15.937h-1.213c-4.204 0-7.626 3.65-7.626 8.137 0 4.486 3.422 8.13 7.626 8.13h1.213c4.204 0 7.626-3.644 7.626-8.13 0-4.487-3.422-8.137-7.626-8.137zm-.603 12.894l-.004.004-.003-.004a4.723 4.723 0 01-4.62-5.636 4.719 4.719 0 014.865-3.799 4.719 4.719 0 014.382 3.799 4.729 4.729 0 01-.98 3.908 4.718 4.718 0 01-3.64 1.728z"/></symbol><symbol viewBox="0 0 20 18" id="photo" xmlns="http://www.w3.org/2000/svg"><path d="M2 18h16c1.1 0 2-.9 2-2V4c0-1.1-.9-2-2-2h-3.17L13 0H7L5.17 2H2C.9 2 0 2.9 0 4v12c0 1.1.9 2 2 2zM2 4h4.05l1.83-2h4.24l1.83 2H18v12H2V4zm8 1c-2.76 0-5 2.24-5 5s2.24 5 5 5 5-2.24 5-5-2.24-5-5-5zm0 8c-1.65 0-3-1.35-3-3s1.35-3 3-3 3 1.35 3 3-1.35 3-3 3z"/></symbol><symbol viewBox="0 0 18 21" id="play" xmlns="http://www.w3.org/2000/svg"><path d="M1 18.137a1 1 0 001.499.867l14-8.054a1 1 0 00.001-1.733l-14-8.083A1 1 0 001 2v16.137z"/></symbol><symbol viewBox="0 0 20 20" id="telegram" xmlns="http://www.w3.org/2000/svg"><path d="M10 0C4.475 0 0 4.476 0 10s4.476 10 10 10 10-4.476 10-10S15.524 0 10 0zm4.912 6.851l-1.642 7.734c-.121.548-.447.681-.903.423l-2.5-1.842-1.206 1.161c-.133.133-.246.246-.504.246l.178-2.545 4.633-4.185c.202-.178-.045-.278-.311-.101L6.93 11.347l-2.468-.77c-.536-.17-.548-.537.113-.795l9.641-3.718c.448-.161.84.109.694.786v.001z"/></symbol></svg>