<?xml version="1.0" encoding="utf-8"?><svg xmlns="http://www.w3.org/2000/svg" xmlns:xlink="http://www.w3.org/1999/xlink"><symbol viewBox="0 0 52 25" id="360-icon" xmlns="http://www.w3.org/2000/svg"><path fill-rule="evenodd" clip-rule="evenodd" d="M49.786 4.454a2.22 2.22 0 01-2.214 2.226 2.22 2.22 0 01-2.214-2.226 2.22 2.22 0 012.214-2.227 2.22 2.22 0 012.214 2.227zm2.214 0c0 2.46-1.983 4.453-4.428 4.453s-4.428-1.994-4.428-4.453c0-2.46 1.983-4.454 4.428-4.454S52 1.994 52 4.454zM6.151 25c-1.372 0-2.588-.228-3.648-.682-1.06-.47-1.895-1.083-2.503-1.835l1.73-2.235c.53.549 1.186.988 1.965 1.317.78.314 1.56.47 2.34.47.935 0 1.66-.18 2.174-.54.515-.377.772-.863.772-1.459 0-.627-.25-1.082-.748-1.364-.5-.298-1.294-.447-2.386-.447-.982 0-1.63.015-1.941.047V15.26c.187.015.834.023 1.941.023 1.918 0 2.877-.557 2.877-1.67 0-.596-.273-1.05-.819-1.364-.53-.33-1.224-.494-2.081-.494-1.513 0-2.83.54-3.953 1.623l-1.66-2.094c1.465-1.662 3.453-2.493 5.964-2.493 1.824 0 3.259.384 4.303 1.152 1.06.769 1.59 1.804 1.59 3.105 0 .941-.335 1.733-1.005 2.376a4.694 4.694 0 01-2.41 1.2c.92.094 1.755.479 2.503 1.153.764.659 1.146 1.529 1.146 2.611 0 1.364-.56 2.478-1.684 3.34C9.496 24.577 8.007 25 6.151 25zm15.614 0c-2.245 0-3.93-.753-5.052-2.259-1.122-1.505-1.684-3.45-1.684-5.834 0-2.43.647-4.39 1.942-5.88 1.294-1.49 3.071-2.235 5.332-2.235 1.809 0 3.345.54 4.608 1.623l-1.497 2.564c-.858-.816-1.895-1.223-3.11-1.223-1.14 0-2.075.43-2.807 1.293-.733.847-1.1 1.898-1.1 3.153 0 .14.008.25.024.329.39-.564.95-1.043 1.684-1.435a4.84 4.84 0 012.315-.588c1.481 0 2.737.455 3.766 1.364 1.029.894 1.543 2.141 1.543 3.74 0 1.553-.553 2.84-1.66 3.859C24.962 24.49 23.527 25 21.765 25zm-.187-2.964c.842 0 1.513-.236 2.012-.706.514-.47.771-1.004.771-1.6 0-.768-.28-1.348-.842-1.74-.56-.408-1.247-.612-2.058-.612-1.247 0-2.26.494-3.04 1.482.078.878.374 1.631.888 2.258.515.612 1.271.918 2.27.918zM36.688 25c1.42 0 2.628-.4 3.626-1.2a6.884 6.884 0 002.152-3.011c.452-1.192.678-2.494.678-3.905 0-1.412-.226-2.713-.678-3.905a6.728 6.728 0 00-2.152-2.988c-.998-.8-2.206-1.2-3.625-1.2-1.42 0-2.635.4-3.649 1.2a6.729 6.729 0 00-2.152 2.988c-.436 1.192-.655 2.493-.655 3.905 0 1.411.219 2.713.655 3.905A6.885 6.885 0 0033.04 23.8c1.014.8 2.23 1.2 3.649 1.2zm0-2.964c-1.06 0-1.84-.47-2.338-1.412-.499-.94-.748-2.188-.748-3.74 0-1.553.249-2.792.748-3.717.499-.94 1.279-1.411 2.339-1.411s1.832.47 2.315 1.411c.5.925.749 2.164.749 3.717 0 1.552-.25 2.8-.749 3.74-.483.941-1.255 1.412-2.315 1.412z"/></symbol><symbol viewBox="0 0 13 23" id="arrow-left" xmlns="http://www.w3.org/2000/svg"><path fill-rule="evenodd" clip-rule="evenodd" d="M.5 13.052c-.14-.146-.25-.32-.326-.51a1.637 1.637 0 010-1.205c.076-.19.186-.364.326-.51L9.497 1.4c.281-.295.663-.46 1.061-.46.398 0 .78.165 1.062.46.281.295.44.695.44 1.113 0 .417-.159.817-.44 1.112L3.682 11.94l7.938 8.314c.14.146.25.32.325.51a1.64 1.64 0 010 1.204 1.58 1.58 0 01-.325.51 1.5 1.5 0 01-.487.342 1.442 1.442 0 01-1.15 0 1.499 1.499 0 01-.486-.341L.5 13.052z"/></symbol><symbol viewBox="0 0 13 23" id="arrow-right" xmlns="http://www.w3.org/2000/svg"><path fill-rule="evenodd" clip-rule="evenodd" d="M12.5 13.052c.14-.146.25-.32.326-.51a1.636 1.636 0 000-1.205 1.576 1.576 0 00-.326-.51L3.503 1.4A1.467 1.467 0 002.442.94c-.398 0-.78.165-1.062.46-.281.295-.44.695-.44 1.113 0 .417.159.817.44 1.112l7.938 8.315-7.938 8.314c-.14.146-.25.32-.325.51a1.639 1.639 0 000 1.204c.075.191.186.365.325.51.14.147.305.263.487.342a1.441 1.441 0 001.15 0c.181-.08.347-.195.486-.341l8.997-9.427z"/></symbol><symbol viewBox="0 0 12 12" id="close" xmlns="http://www.w3.org/2000/svg"><path d="M10.59 0L12 1.41l-4.5 4.5 4.5 4.5-1.41 1.41-4.505-4.495L6 7.41l-.085-.085L1.41 11.82 0 10.41l4.5-4.5L0 1.41 1.41 0l4.505 4.495L6 4.41l.085.085L10.59 0z"/></symbol><symbol viewBox="0 0 50 50" id="close-modal" xmlns="http://www.w3.org/2000/svg"><path d="M37.304 11.282l1.414 1.414-26.022 26.02-1.414-1.413 26.022-26.021z"/><path d="M12.696 11.282l26.022 26.02-1.414 1.415-26.022-26.02 1.414-1.415z"/></symbol><symbol viewBox="0 0 54 43" id="delivery-icon" xmlns="http://www.w3.org/2000/svg"><path d="M53.846 21.11L48.06 7.61a1.928 1.928 0 00-1.774-1.176H40.5V2.577A1.928 1.928 0 0038.571.648H1.93A1.929 1.929 0 000 2.577v32.785a1.929 1.929 0 001.929 1.929h4.127a7.714 7.714 0 0014.888 0h12.112a7.714 7.714 0 0014.888 0h4.127A1.929 1.929 0 0054 35.362v-13.5a1.93 1.93 0 00-.154-.752zM40.5 10.29h4.513l4.127 9.644H40.5V10.29zm-27 28.93a3.857 3.857 0 110-7.715 3.857 3.857 0 010 7.714zm19.556-5.786H20.944a7.714 7.714 0 00-14.888 0H3.857V4.505h32.786v24.223a7.714 7.714 0 00-3.587 4.706zm7.444 5.785a3.857 3.857 0 110-7.714 3.857 3.857 0 010 7.714zm9.643-5.785h-2.199a7.715 7.715 0 00-7.444-5.786v-3.857h9.643v9.643z"/></symbol><symbol viewBox="0 0 20 20" id="instagram" xmlns="http://www.w3.org/2000/svg"><path d="M9.997 6.665A3.342 3.342 0 006.662 10a3.342 3.342 0 003.335 3.335A3.342 3.342 0 0013.332 10a3.342 3.342 0 00-3.335-3.335zM20 10c0-1.381.012-2.75-.065-4.128-.078-1.601-.443-3.022-1.614-4.193C17.147.506 15.728.143 14.127.066 12.747-.012 11.378 0 10 0 8.619 0 7.25-.012 5.872.066 4.27.143 2.85.509 1.679 1.679.506 2.853.143 4.271.066 5.872-.012 7.253 0 8.622 0 10c0 1.378-.012 2.75.066 4.127.077 1.602.442 3.022 1.613 4.193 1.173 1.174 2.592 1.536 4.193 1.614 1.38.077 2.75.065 4.128.065 1.38 0 2.749.012 4.127-.065 1.601-.078 3.022-.443 4.193-1.614 1.173-1.173 1.536-2.591 1.614-4.193.08-1.378.065-2.746.065-4.127zM9.997 15.13A5.124 5.124 0 014.867 10c0-2.84 2.29-5.131 5.13-5.131s5.13 2.291 5.13 5.13c0 2.84-2.29 5.132-5.13 5.132zm5.341-9.273A1.197 1.197 0 0114.14 4.66c0-.663.535-1.198 1.198-1.198a1.197 1.197 0 01.848 2.046 1.197 1.197 0 01-.848.35z"/></symbol><symbol viewBox="0 0 170 45" id="logo" xmlns="http://www.w3.org/2000/svg"><path d="M21.819 44.042c11.897 0 21.542-9.645 21.542-21.542C43.36 10.602 33.716.958 21.819.958 9.92.958.276 10.602.276 22.5c0 11.897 9.645 21.542 21.543 21.542z"/><path fill-rule="evenodd" clip-rule="evenodd" d="M15.085 14.031h3.705v17h-3.705v-17zm11.897 0h4.684l-5.595 6.623h17.234c0 .307.014.615.028.923.014.308.028.615.028.923 0 .616 0 1.231-.056 1.847H26.533l5.213 6.678h-4.653l-6.955-8.808 6.844-8.186zM140.444 31.322a7.007 7.007 0 01-2.835.603l.037.03c-4.154 0-7.521-3.65-7.521-8.136 0-4.487 3.367-8.137 7.466-8.137a6.838 6.838 0 015.158 2.585v-8.001h3.693v21.247h-3.65v-1.89a7.016 7.016 0 01-2.348 1.699zm.547-11.434a4.715 4.715 0 00-2.6-.814 4.923 4.923 0 00-3.422 1.403 5.028 5.028 0 00-1.342 3.367 4.719 4.719 0 002.937 4.31 4.716 4.716 0 004.427-8.266z"/><path d="M118.509 16.167v8.617h.002v.543l-.002.046v.027h-.001c-.01.486.062 3.238 3.031 3.238 2.357 0 3.256-1.403 3.588-2.579v-9.928h3.693v15.43h-3.693v-2.135a5.21 5.21 0 01-4.487 2.53c-5.729 0-5.808-5.65-5.784-6.556h-.002v-9.233h3.655zm-9.376 15.724c-1.346 0-2.09-.341-2.793-1.024-.703-.684-1.055-1.668-1.055-2.954v-8.4h-2.411v-3.346h2.411V12.19h3.577v3.978h2.954v3.346h-2.954v7.375c0 .462.121.844.362 1.145.241.302.562.452.964.452.603 0 1.045-.14 1.327-.422l.813 2.894c-.703.623-1.768.934-3.195.934zm-21.617-2.806c1.822 1.857 4.292 2.785 7.41 2.785 2.277 0 4.011-.517 5.203-1.55 1.208-1.034 1.813-2.391 1.813-4.073 0-1.016-.254-1.883-.762-2.601-.491-.736-1.113-1.27-1.866-1.603a16.942 16.942 0 00-2.417-.92c-.859-.28-1.664-.49-2.418-.63-.735-.14-1.357-.35-1.865-.63-.49-.299-.736-.658-.736-1.078 0-.543.22-.972.657-1.288.438-.315 1.051-.473 1.84-.473 2.014 0 3.713.64 5.097 1.918l2.076-2.732c-1.77-1.63-4.047-2.444-6.832-2.444-2.015 0-3.626.517-4.835 1.55-1.209 1.016-1.813 2.278-1.813 3.784 0 1.034.245 1.91.736 2.628.508.718 1.13 1.243 1.865 1.576.754.333 1.568.63 2.444.894.876.262 1.682.464 2.417.604.754.14 1.376.368 1.866.683.508.315.762.71.762 1.182 0 .543-.272 1.008-.815 1.393-.525.368-1.27.552-2.233.552-2.207 0-4.064-.788-5.57-2.365l-2.024 2.838zM50.65 14.376h3.694v17.086H50.65V14.376zm10.655 17.086l-6.961-8.9 6.85-8.204h4.66l-6.851 8.204 6.961 8.9h-4.66zm18.982 0H68.56V14.321h11.725v3.305h-7.964v3.478h7.386v3.145h-7.386v3.871h7.965v3.342zm68.227-15.295h3.693v15.388h-3.693V16.167z"/><path fill-rule="evenodd" clip-rule="evenodd" d="M162.096 15.937h-1.213c-4.204 0-7.626 3.65-7.626 8.137 0 4.486 3.422 8.13 7.626 8.13h1.213c4.204 0 7.626-3.644 7.626-8.13 0-4.487-3.422-8.137-7.626-8.137zm-.603 12.894l-.004.004-.003-.004a4.723 4.723 0 01-4.62-5.636 4.719 4.719 0 014.865-3.799 4.719 4.719 0 014.382 3.799 4.729 4.729 0 01-.98 3.908 4.718 4.718 0 01-3.64 1.728z"/></symbol><symbol viewBox="0 0 11 1" id="minus" xmlns="http://www.w3.org/2000/svg"><path d="M0 0h11v1H0z"/></symbol><symbol viewBox="0 0 20 18" id="photo" xmlns="http://www.w3.org/2000/svg"><path d="M2 18h16c1.1 0 2-.9 2-2V4c0-1.1-.9-2-2-2h-3.17L13 0H7L5.17 2H2C.9 2 0 2.9 0 4v12c0 1.1.9 2 2 2zM2 4h4.05l1.83-2h4.24l1.83 2H18v12H2V4zm8 1c-2.76 0-5 2.24-5 5s2.24 5 5 5 5-2.24 5-5-2.24-5-5-5zm0 8c-1.65 0-3-1.35-3-3s1.35-3 3-3 3 1.35 3 3-1.35 3-3 3z"/></symbol><symbol viewBox="0 0 36 31" id="photo-icon" xmlns="http://www.w3.org/2000/svg"><path d="M21.853 3.444l3.241 3.445h7.173v20.667H3.93V6.889h7.173l3.241-3.445h7.51zM23.412 0H12.785L9.544 3.444H3.929C1.981 3.444.387 4.994.387 6.89v20.667C.387 29.45 1.98 31 3.929 31h28.338c1.949 0 3.543-1.55 3.543-3.444V6.889c0-1.895-1.594-3.445-3.543-3.445h-5.614L23.412 0zm-5.314 12.056c2.923 0 5.314 2.325 5.314 5.166 0 2.842-2.391 5.167-5.314 5.167-2.922 0-5.313-2.325-5.313-5.167 0-2.841 2.39-5.166 5.313-5.166zm0-3.445c-4.888 0-8.856 3.858-8.856 8.611 0 4.754 3.968 8.611 8.856 8.611 4.889 0 8.856-3.857 8.856-8.61 0-4.754-3.967-8.612-8.856-8.612z"/></symbol><symbol viewBox="0 0 18 21" id="play" xmlns="http://www.w3.org/2000/svg"><path d="M1 18.137a1 1 0 001.499.867l14-8.054a1 1 0 00.001-1.733l-14-8.083A1 1 0 001 2v16.137z"/></symbol><symbol viewBox="0 0 11 11" id="plus" xmlns="http://www.w3.org/2000/svg"><path fill-rule="evenodd" clip-rule="evenodd" d="M5 6v5h1V6h5V5H6V0H5v5H0v1h5z"/></symbol><symbol viewBox="0 0 36 36" id="retush-icon" xmlns="http://www.w3.org/2000/svg"><path d="M34.905 4.659L30.625.503A1.796 1.796 0 0029.375 0c-.469 0-.919.18-1.25.503l-8.1 7.866a1.693 1.693 0 00-.518 1.214v4.156c0 .455.186.892.518 1.214.331.322.781.503 1.25.503h4.28c.469 0 .919-.18 1.25-.503l8.1-7.866a1.69 1.69 0 00.518-1.214c0-.455-.186-.892-.518-1.214zm-10.08 7.362h-1.781v-1.727l6.331-6.149 1.78 1.728-6.33 6.148zm5.24 5.087c-.47 0-.92.181-1.25.503a1.693 1.693 0 00-.519 1.215v4.108l-2.617-2.542a4.992 4.992 0 00-3.474-1.396 4.992 4.992 0 00-3.475 1.396l-1.234 1.197-4.397-4.27a4.986 4.986 0 00-3.47-1.393 4.986 4.986 0 00-3.47 1.394l-2.622 2.547v-9.628c0-.456.187-.892.519-1.214a1.797 1.797 0 011.25-.504h10.61c.47 0 .92-.18 1.251-.503.332-.322.518-.759.518-1.214 0-.455-.186-.892-.518-1.214a1.796 1.796 0 00-1.25-.503H5.306a5.392 5.392 0 00-3.75 1.51A5.083 5.083 0 000 10.24v20.609a5.083 5.083 0 001.556 3.641A5.392 5.392 0 005.306 36h21.222a5.392 5.392 0 003.75-1.51 5.083 5.083 0 001.555-3.642V18.826c0-.456-.186-.892-.518-1.215a1.796 1.796 0 00-1.25-.503zM5.305 32.566c-.468 0-.918-.181-1.25-.503a1.695 1.695 0 01-.518-1.214v-6.124l5.123-4.976a1.442 1.442 0 011.939 0l5.602 5.44c.016.016.022.037.036.05l7.546 7.327H5.306zm22.991-1.717a1.635 1.635 0 01-.316.922l-7.983-7.752 1.234-1.2a1.4 1.4 0 01.973-.389c.364 0 .714.14.972.39l5.12 4.972v3.057z"/></symbol><symbol viewBox="0 0 20 20" id="telegram" xmlns="http://www.w3.org/2000/svg"><path d="M10 0C4.475 0 0 4.476 0 10s4.476 10 10 10 10-4.476 10-10S15.524 0 10 0zm4.912 6.851l-1.642 7.734c-.121.548-.447.681-.903.423l-2.5-1.842-1.206 1.161c-.133.133-.246.246-.504.246l.178-2.545 4.633-4.185c.202-.178-.045-.278-.311-.101L6.93 11.347l-2.468-.77c-.536-.17-.548-.537.113-.795l9.641-3.718c.448-.161.84.109.694.786v.001z"/></symbol></svg>